<svg width="76" height="8" fill="none" xmlns="http://www.w3.org/2000/svg"><path d="M1.454 5.472A2.102 2.102 0 0 1 .766 3.88c0-.63.23-1.16.688-1.592.46-.432 1.043-.648 1.752-.648.934 0 1.62.315 2.056.944.192.283.32.595.384.936h-1.88a.55.55 0 0 0-.112-.216.532.532 0 0 0-.448-.224.486.486 0 0 0-.408.2c-.1.128-.152.328-.152.6 0 .272.051.475.152.608a.493.493 0 0 0 .408.192.525.525 0 0 0 .448-.216.63.63 0 0 0 .112-.224h1.88a2.453 2.453 0 0 1-.384.944c-.42.624-1.106.936-2.056.936-.709 0-1.293-.216-1.752-.648ZM6.208 6V.4h1.84v1.96h.08c.074-.133.176-.253.304-.36.282-.24.594-.36.936-.36.474 0 .845.15 1.112.448.272.293.408.717.408 1.272V6h-1.84V3.68c0-.165-.04-.293-.12-.384a.406.406 0 0 0-.32-.136.527.527 0 0 0-.408.176c-.102.112-.152.267-.152.464V6h-1.84Zm5.895-.52a2.1 2.1 0 0 1-.696-1.6c0-.635.232-1.165.696-1.592.47-.432 1.077-.648 1.824-.648.741 0 1.347.216 1.816.648.47.427.704.957.704 1.592 0 .635-.235 1.168-.704 1.6-.47.427-1.075.64-1.816.64-.747 0-1.355-.213-1.824-.64Zm1.36-2.184c-.117.139-.176.333-.176.584 0 .25.059.448.176.592a.593.593 0 0 0 .464.208.57.57 0 0 0 .456-.208c.123-.144.184-.341.184-.592 0-.25-.061-.445-.184-.584a.56.56 0 0 0-.456-.216.584.584 0 0 0-.464.216Zm4.078 2.184a2.1 2.1 0 0 1-.697-1.6c0-.635.232-1.165.697-1.592.469-.432 1.077-.648 1.823-.648.742 0 1.347.216 1.816.648.47.427.704.957.704 1.592 0 .635-.234 1.168-.704 1.6-.469.427-1.074.64-1.816.64-.746 0-1.354-.213-1.823-.64Zm1.36-2.184c-.118.139-.177.333-.177.584 0 .25.06.448.177.592a.593.593 0 0 0 .463.208.57.57 0 0 0 .456-.208c.123-.144.184-.341.184-.592 0-.25-.06-.445-.184-.584a.56.56 0 0 0-.456-.216.584.584 0 0 0-.463.216ZM22.242 4.6h1.72a.285.285 0 0 0 .08.16c.085.107.232.16.44.16.24 0 .36-.053.36-.16 0-.064-.043-.115-.128-.152a2.804 2.804 0 0 0-.44-.128 1.799 1.799 0 0 1-1.088-.328 13.314 13.314 0 0 1-.296-.176.996.996 0 0 1-.264-.248 1.547 1.547 0 0 1-.16-.312A1.31 1.31 0 0 1 22.402 3c0-.39.173-.712.52-.968.347-.261.853-.392 1.52-.392.821 0 1.437.248 1.848.744.181.224.299.47.352.736h-1.72a1.015 1.015 0 0 0-.064-.136.357.357 0 0 0-.296-.144c-.187 0-.28.053-.28.16 0 .059.048.107.144.144.101.037.264.077.488.12.144.032.23.053.256.064.032.005.117.027.256.064.144.037.24.067.288.088l.248.112c.117.048.2.093.248.136.048.043.112.101.192.176.085.07.144.144.176.224.037.075.07.163.096.264.032.101.048.21.048.328 0 .395-.19.728-.568 1-.373.267-.917.4-1.632.4-.901 0-1.547-.253-1.936-.76a1.744 1.744 0 0 1-.344-.76Zm5.525.872a2.101 2.101 0 0 1-.688-1.592c0-.63.23-1.16.688-1.592.459-.432 1.043-.648 1.752-.648.71 0 1.293.216 1.752.648.459.432.688.963.688 1.592V4h-3c0 .56.187.84.56.84a.56.56 0 0 0 .408-.176.63.63 0 0 0 .112-.184h1.88c-.096.31-.248.584-.456.824-.48.544-1.128.816-1.944.816-.71 0-1.293-.216-1.752-.648Zm1.232-1.992h1.04a.774.774 0 0 0-.08-.28c-.101-.187-.248-.28-.44-.28s-.339.093-.44.28a.774.774 0 0 0-.08.28Zm5.483-1.72h1.84l.6 2.72h.12l.6-2.72h1.88L38.01 7.52h-1.848l.44-1.52h-1.08l-1.04-4.24Zm5.934 3.72a2.1 2.1 0 0 1-.697-1.6c0-.635.233-1.165.697-1.592.469-.432 1.077-.648 1.824-.648.74 0 1.346.216 1.816.648.469.427.704.957.704 1.592 0 .635-.235 1.168-.704 1.6-.47.427-1.075.64-1.816.64-.747 0-1.355-.213-1.825-.64Zm1.36-2.184c-.118.139-.177.333-.177.584 0 .25.06.448.177.592a.593.593 0 0 0 .463.208.57.57 0 0 0 .457-.208c.122-.144.184-.341.184-.592 0-.25-.062-.445-.184-.584a.56.56 0 0 0-.456-.216.584.584 0 0 0-.465.216ZM45.316 4.4V1.76h1.84v2.32c0 .165.04.293.12.384.08.09.187.136.32.136a.514.514 0 0 0 .4-.168c.107-.117.16-.275.16-.472v-2.2h1.84V6h-1.84v-.6h-.08a1.286 1.286 0 0 1-.304.36c-.283.24-.595.36-.936.36-.475 0-.848-.147-1.12-.44-.267-.299-.4-.725-.4-1.28ZM50.715 6V1.76h1.76v.64h.08a1.29 1.29 0 0 1 .209-.36.932.932 0 0 1 .752-.36h.36v1.76h-.768c-.198 0-.34.043-.424.128-.086.08-.128.21-.128.392V6h-1.84Zm5.844 0V.4h1.84v4.36h.96V6h-2.8Zm3.778-.52a2.1 2.1 0 0 1-.696-1.6c0-.635.232-1.165.696-1.592.47-.432 1.078-.648 1.824-.648.742 0 1.347.216 1.816.648.47.427.704.957.704 1.592 0 .635-.234 1.168-.704 1.6-.469.427-1.074.64-1.816.64-.746 0-1.354-.213-1.824-.64Zm1.36-2.184c-.117.139-.176.333-.176.584 0 .25.06.448.176.592a.593.593 0 0 0 .464.208.57.57 0 0 0 .456-.208c.123-.144.184-.341.184-.592 0-.25-.06-.445-.184-.584a.56.56 0 0 0-.456-.216.584.584 0 0 0-.464.216Zm4.078 2.184a2.1 2.1 0 0 1-.696-1.6c0-.635.232-1.165.696-1.592.47-.432 1.077-.648 1.824-.648.741 0 1.347.216 1.816.648.47.427.704.957.704 1.592 0 .635-.235 1.168-.704 1.6-.47.427-1.075.64-1.816.64-.747 0-1.355-.213-1.824-.64Zm1.36-2.184c-.117.139-.176.333-.176.584 0 .25.059.448.176.592a.593.593 0 0 0 .464.208.57.57 0 0 0 .456-.208c.123-.144.184-.341.184-.592 0-.25-.061-.445-.184-.584a.56.56 0 0 0-.456-.216.584.584 0 0 0-.464.216ZM70.676 6V.4h1.84v2.72h.28l.64-1.36h1.88l-1 2.04 1.12 2.2h-1.88l-.68-1.36h-.36V6h-1.84Z" fill="#000"/></svg>