<svg width="76" height="8" viewBox="0 0 76 8" fill="none" xmlns="http://www.w3.org/2000/svg">
<path d="M1.45441 5.472C0.99574 5.04 0.766406 4.50933 0.766406 3.88C0.766406 3.25067 0.99574 2.72 1.45441 2.288C1.91307 1.856 2.49707 1.64 3.20641 1.64C4.13974 1.64 4.82507 1.95467 5.26241 2.584C5.45441 2.86667 5.58241 3.17867 5.64641 3.52H3.76641C3.73974 3.42933 3.70241 3.35733 3.65441 3.304C3.54241 3.15467 3.39307 3.08 3.20641 3.08C3.03574 3.08 2.89974 3.14667 2.79841 3.28C2.69707 3.408 2.64641 3.608 2.64641 3.88C2.64641 4.152 2.69707 4.35467 2.79841 4.488C2.89974 4.616 3.03574 4.68 3.20641 4.68C3.39841 4.68 3.54774 4.608 3.65441 4.464C3.70241 4.40533 3.73974 4.33067 3.76641 4.24H5.64641C5.58241 4.58667 5.45441 4.90133 5.26241 5.184C4.84107 5.808 4.15574 6.12 3.20641 6.12C2.49707 6.12 1.91307 5.904 1.45441 5.472ZM6.20766 6V0.4H8.04766V2.36H8.12766C8.20232 2.22667 8.30366 2.10667 8.43166 2C8.71432 1.76 9.02632 1.64 9.36766 1.64C9.84232 1.64 10.213 1.78933 10.4797 2.088C10.7517 2.38133 10.8877 2.80533 10.8877 3.36V6H9.04766V3.68C9.04766 3.51467 9.00766 3.38667 8.92766 3.296C8.84766 3.20533 8.74099 3.16 8.60766 3.16C8.44232 3.16 8.30632 3.21867 8.19966 3.336C8.09832 3.448 8.04766 3.60267 8.04766 3.8V6H6.20766ZM12.103 5.48C11.639 5.048 11.407 4.51467 11.407 3.88C11.407 3.24533 11.639 2.71467 12.103 2.288C12.5724 1.856 13.1804 1.64 13.927 1.64C14.6684 1.64 15.2737 1.856 15.743 2.288C16.2124 2.71467 16.447 3.24533 16.447 3.88C16.447 4.51467 16.2124 5.048 15.743 5.48C15.2737 5.90667 14.6684 6.12 13.927 6.12C13.1804 6.12 12.5724 5.90667 12.103 5.48ZM13.463 3.296C13.3457 3.43467 13.287 3.62933 13.287 3.88C13.287 4.13067 13.3457 4.328 13.463 4.472C13.5857 4.61067 13.7404 4.68 13.927 4.68C14.1137 4.68 14.2657 4.61067 14.383 4.472C14.5057 4.328 14.567 4.13067 14.567 3.88C14.567 3.62933 14.5057 3.43467 14.383 3.296C14.2657 3.152 14.1137 3.08 13.927 3.08C13.7404 3.08 13.5857 3.152 13.463 3.296ZM17.5405 5.48C17.0765 5.048 16.8445 4.51467 16.8445 3.88C16.8445 3.24533 17.0765 2.71467 17.5405 2.288C18.0099 1.856 18.6179 1.64 19.3645 1.64C20.1059 1.64 20.7112 1.856 21.1805 2.288C21.6499 2.71467 21.8845 3.24533 21.8845 3.88C21.8845 4.51467 21.6499 5.048 21.1805 5.48C20.7112 5.90667 20.1059 6.12 19.3645 6.12C18.6179 6.12 18.0099 5.90667 17.5405 5.48ZM18.9005 3.296C18.7832 3.43467 18.7245 3.62933 18.7245 3.88C18.7245 4.13067 18.7832 4.328 18.9005 4.472C19.0232 4.61067 19.1779 4.68 19.3645 4.68C19.5512 4.68 19.7032 4.61067 19.8205 4.472C19.9432 4.328 20.0045 4.13067 20.0045 3.88C20.0045 3.62933 19.9432 3.43467 19.8205 3.296C19.7032 3.152 19.5512 3.08 19.3645 3.08C19.1779 3.08 19.0232 3.152 18.9005 3.296ZM22.242 4.6H23.962C23.9674 4.65333 23.994 4.70667 24.042 4.76C24.1274 4.86667 24.274 4.92 24.482 4.92C24.722 4.92 24.842 4.86667 24.842 4.76C24.842 4.696 24.7994 4.64533 24.714 4.608C24.6287 4.57067 24.482 4.528 24.274 4.48C24.2474 4.47467 24.226 4.46933 24.21 4.464C24.05 4.42667 23.938 4.4 23.874 4.384C23.81 4.368 23.698 4.336 23.538 4.288C23.378 4.24 23.2607 4.19467 23.186 4.152C23.1114 4.10933 23.0127 4.05067 22.89 3.976C22.7727 3.896 22.6847 3.81333 22.626 3.728C22.5674 3.64267 22.514 3.53867 22.466 3.416C22.4234 3.288 22.402 3.14933 22.402 3C22.402 2.61067 22.5754 2.288 22.922 2.032C23.2687 1.77067 23.7754 1.64 24.442 1.64C25.2634 1.64 25.8794 1.888 26.29 2.384C26.4714 2.608 26.5887 2.85333 26.642 3.12H24.922C24.906 3.07733 24.8847 3.032 24.858 2.984C24.7834 2.888 24.6847 2.84 24.562 2.84C24.3754 2.84 24.282 2.89333 24.282 3C24.282 3.05867 24.33 3.10667 24.426 3.144C24.5274 3.18133 24.69 3.22133 24.914 3.264C25.058 3.296 25.1434 3.31733 25.17 3.328C25.202 3.33333 25.2874 3.35467 25.426 3.392C25.57 3.42933 25.666 3.45867 25.714 3.48C25.762 3.50133 25.8447 3.53867 25.962 3.592C26.0794 3.64 26.162 3.68533 26.21 3.728C26.258 3.77067 26.322 3.82933 26.402 3.904C26.4874 3.97333 26.546 4.048 26.578 4.128C26.6154 4.20267 26.6474 4.29067 26.674 4.392C26.706 4.49333 26.722 4.60267 26.722 4.72C26.722 5.11467 26.5327 5.448 26.154 5.72C25.7807 5.98667 25.2367 6.12 24.522 6.12C23.6207 6.12 22.9754 5.86667 22.586 5.36C22.4154 5.14667 22.3007 4.89333 22.242 4.6ZM27.7669 5.472C27.3082 5.04 27.0789 4.50933 27.0789 3.88C27.0789 3.25067 27.3082 2.72 27.7669 2.288C28.2256 1.856 28.8096 1.64 29.5189 1.64C30.2282 1.64 30.8122 1.856 31.2709 2.288C31.7296 2.72 31.9589 3.25067 31.9589 3.88V4H28.9589C28.9589 4.56 29.1456 4.84 29.5189 4.84C29.6736 4.84 29.8096 4.78133 29.9269 4.664C29.9802 4.6 30.0176 4.53867 30.0389 4.48H31.9189C31.8229 4.78933 31.6709 5.064 31.4629 5.304C30.9829 5.848 30.3349 6.12 29.5189 6.12C28.8096 6.12 28.2256 5.904 27.7669 5.472ZM28.9989 3.48H30.0389C30.0336 3.39467 30.0069 3.30133 29.9589 3.2C29.8576 3.01333 29.7109 2.92 29.5189 2.92C29.3269 2.92 29.1802 3.01333 29.0789 3.2C29.0309 3.30133 29.0042 3.39467 28.9989 3.48ZM34.4823 1.76H36.3223L36.9223 4.48H37.0423L37.6423 1.76H39.5223L38.0103 7.52H36.1623L36.6023 6H35.5223L34.4823 1.76ZM40.4155 5.48C39.9515 5.048 39.7195 4.51467 39.7195 3.88C39.7195 3.24533 39.9515 2.71467 40.4155 2.288C40.8849 1.856 41.4929 1.64 42.2395 1.64C42.9809 1.64 43.5862 1.856 44.0555 2.288C44.5249 2.71467 44.7595 3.24533 44.7595 3.88C44.7595 4.51467 44.5249 5.048 44.0555 5.48C43.5862 5.90667 42.9809 6.12 42.2395 6.12C41.4929 6.12 40.8849 5.90667 40.4155 5.48ZM41.7755 3.296C41.6582 3.43467 41.5995 3.62933 41.5995 3.88C41.5995 4.13067 41.6582 4.328 41.7755 4.472C41.8982 4.61067 42.0529 4.68 42.2395 4.68C42.4262 4.68 42.5782 4.61067 42.6955 4.472C42.8182 4.328 42.8795 4.13067 42.8795 3.88C42.8795 3.62933 42.8182 3.43467 42.6955 3.296C42.5782 3.152 42.4262 3.08 42.2395 3.08C42.0529 3.08 41.8982 3.152 41.7755 3.296ZM45.317 4.4V1.76H47.157V4.08C47.157 4.24533 47.197 4.37333 47.277 4.464C47.357 4.55467 47.4637 4.6 47.597 4.6C47.7624 4.6 47.8957 4.544 47.997 4.432C48.1037 4.31467 48.157 4.15733 48.157 3.96V1.76H49.997V6H48.157V5.4H48.077C48.0024 5.53333 47.901 5.65333 47.773 5.76C47.4904 6 47.1784 6.12 46.837 6.12C46.3624 6.12 45.989 5.97333 45.717 5.68C45.4504 5.38133 45.317 4.95467 45.317 4.4ZM50.7155 6V1.76H52.4755V2.4H52.5555C52.6035 2.272 52.6728 2.152 52.7635 2.04C52.9608 1.8 53.2115 1.68 53.5155 1.68H53.8755V3.44H53.1075C52.9101 3.44 52.7688 3.48267 52.6835 3.568C52.5981 3.648 52.5555 3.77867 52.5555 3.96V6H50.7155ZM56.5592 6V0.4H58.3992V4.76H59.3592V6H56.5592ZM60.3374 5.48C59.8734 5.048 59.6414 4.51467 59.6414 3.88C59.6414 3.24533 59.8734 2.71467 60.3374 2.288C60.8067 1.856 61.4147 1.64 62.1614 1.64C62.9027 1.64 63.5081 1.856 63.9774 2.288C64.4467 2.71467 64.6814 3.24533 64.6814 3.88C64.6814 4.51467 64.4467 5.048 63.9774 5.48C63.5081 5.90667 62.9027 6.12 62.1614 6.12C61.4147 6.12 60.8067 5.90667 60.3374 5.48ZM61.6974 3.296C61.5801 3.43467 61.5214 3.62933 61.5214 3.88C61.5214 4.13067 61.5801 4.328 61.6974 4.472C61.8201 4.61067 61.9747 4.68 62.1614 4.68C62.3481 4.68 62.5001 4.61067 62.6174 4.472C62.7401 4.328 62.8014 4.13067 62.8014 3.88C62.8014 3.62933 62.7401 3.43467 62.6174 3.296C62.5001 3.152 62.3481 3.08 62.1614 3.08C61.9747 3.08 61.8201 3.152 61.6974 3.296ZM65.7749 5.48C65.3109 5.048 65.0789 4.51467 65.0789 3.88C65.0789 3.24533 65.3109 2.71467 65.7749 2.288C66.2442 1.856 66.8522 1.64 67.5989 1.64C68.3402 1.64 68.9456 1.856 69.4149 2.288C69.8842 2.71467 70.1189 3.24533 70.1189 3.88C70.1189 4.51467 69.8842 5.048 69.4149 5.48C68.9456 5.90667 68.3402 6.12 67.5989 6.12C66.8522 6.12 66.2442 5.90667 65.7749 5.48ZM67.1349 3.296C67.0176 3.43467 66.9589 3.62933 66.9589 3.88C66.9589 4.13067 67.0176 4.328 67.1349 4.472C67.2576 4.61067 67.4122 4.68 67.5989 4.68C67.7856 4.68 67.9376 4.61067 68.0549 4.472C68.1776 4.328 68.2389 4.13067 68.2389 3.88C68.2389 3.62933 68.1776 3.43467 68.0549 3.296C67.9376 3.152 67.7856 3.08 67.5989 3.08C67.4122 3.08 67.2576 3.152 67.1349 3.296ZM70.6764 6V0.4H72.5164V3.12H72.7964L73.4364 1.76H75.3164L74.3164 3.8L75.4364 6H73.5564L72.8764 4.64H72.5164V6H70.6764Z" fill="black"/>
</svg>
